PathFileType	4	(X/Y/Z)	E:\Qualisys_Data\Carbon_Farble_Plate\Data\Amateur_Runner\S2\T1\S2T1V21_c3d.trc
DataRate	CameraRate	NumFrames	NumMarkers	Units	OrigDataRate	OrigDataStartFrame	OrigNumFrames
200.000000	200.000000	5	39	mm	200.000000	39	315
Frame#	Time	LSHO			RSHO			LICST			RICST			LASIS			LHEEL			RASIS			LTROC			RTROC			SACR			LTH1			LSK4			LTH2			LTH3			RHM5			LSK2			LTH4			RTH1			LTOE			RTH2			RTH3			RTH4			LLEP			RLEP			LSK1			LSK3			RSK1			LHM5			RSK2			LFT1			RSK3			RSK4			LLME			RLME			RTOE			RHEEL			RFT1			RFT2			LFT2			
		X1	Y1	Z1	X2	Y2	Z2	X3	Y3	Z3	X4	Y4	Z4	X5	Y5	Z5	X6	Y6	Z6	X7	Y7	Z7	X8	Y8	Z8	X9	Y9	Z9	X10	Y10	Z10	X11	Y11	Z11	X12	Y12	Z12	X13	Y13	Z13	X14	Y14	Z14	X15	Y15	Z15	X16	Y16	Z16	X17	Y17	Z17	X18	Y18	Z18	X19	Y19	Z19	X20	Y20	Z20	X21	Y21	Z21	X22	Y22	Z22	X23	Y23	Z23	X24	Y24	Z24	X25	Y25	Z25	X26	Y26	Z26	X27	Y27	Z27	X28	Y28	Z28	X29	Y29	Z29	X30	Y30	Z30	X31	Y31	Z31	X32	Y32	Z32	X33	Y33	Z33	X34	Y34	Z34	X35	Y35	Z35	X36	Y36	Z36	X37	Y37	Z37	X38	Y38	Z38	X39	Y39	Z39	

40	0.195	-2481.01171875	1445.081787109375	-457.0469055175781	-2454.4150390625	1401.369506835938	-142.7207489013672	-2550.106689453125	974.3099365234376	-472.2008361816406	-2552.226318359375	961.8334350585938	-167.5709381103516	-2491.096923828125	925.8882446289062	-453.4983520507812	-2781.6103515625	471.6705932617188	-367.9101867675781	-2489.301513671875	918.625732421875	-190.4646759033203	-2612.2333984375	844.2686157226562	-472.5213012695312	-2636.406982421875	862.9358520507812	-171.222412109375	-2636.949462890625	1013.818481445312	-320.9007873535156	-2387.099609375	659.8080444335938	-475.2704772949219	-2592.27880859375	493.1019592285156	-450.4326782226562	-2463.0	624.9666748046875	-485.0884094238281	-2346.885498046875	566.9369506835938	-455.1884155273438	-2668.05615234375	75.78651428222656	-193.3635101318359	-2495.272705078125	511.8877258300781	-466.0009155273438	-2426.57958984375	533.7994384765625	-457.7279052734375	-2505.298828125	595.7342529296875	-160.1468048095703	-2727.898193359375	233.3752593994141	-389.5433654785156	-2582.939697265625	596.1488647460938	-164.2950592041016	-2505.844482421875	497.0917358398438	-187.0599060058594	-2586.05908203125	501.5071411132812	-185.5301055908203	-2377.811767578125	505.3096618652344	-459.0313720703125	-2556.030029296875	463.9909973144531	-181.9231872558594	-2479.212158203125	435.2739868164062	-453.3497619628906	-2577.325927734375	416.0516052246094	-443.6390686035156	-2575.31103515625	340.7224731445312	-189.4423828125	-2760.908935546875	279.7429504394531	-450.7195739746094	-2643.154052734375	383.9729614257812	-175.3792419433594	-2801.451416015625	451.8189086914062	-338.4239196777344	-2633.7880859375	257.164794921875	-204.7899475097656	-2697.996337890625	301.9267272949219	-190.8740386962891	-2756.08203125	417.9729614257812	-424.0369262695312	-2773.114501953125	137.2578887939453	-229.7655487060547	-2610.200439453125	71.01712036132812	-258.1193237304688	-2840.3583984375	133.2213592529297	-290.5690307617188	-2831.015869140625	98.37960815429688	-315.9891357421875	-2845.734375	109.7080612182617	-264.1014404296875	-2809.05810546875	461.5811462402344	-392.0560607910156
41	0.2	-2463.50927734375	1449.835815429688	-457.3790588378906	-2431.9951171875	1406.248046875	-143.919677734375	-2529.10302734375	979.5667724609376	-472.0932006835938	-2528.457763671875	965.9577026367188	-167.0507659912109	-2469.757080078125	931.086181640625	-452.9782104492188	-2754.599609375	460.83154296875	-367.8802185058594	-2467.001953125	921.8325805664062	-190.6884307861328	-2590.22802734375	848.9321899414062	-473.0000915527344	-2615.75390625	866.3200073242188	-171.8031921386719	-2615.37939453125	1017.920593261719	-319.6006164550781	-2362.437255859375	669.1463012695312	-473.7786254882812	-2563.7109375	491.9550476074219	-449.1981811523438	-2437.718017578125	632.4998779296875	-483.9955444335938	-2319.73681640625	577.0275268554688	-453.6058959960938	-2668.162353515625	76.33043670654297	-194.1238861083984	-2468.0498046875	515.6458129882812	-464.5866088867188	-2397.91162109375	541.9122314453125	-455.9088439941406	-2495.43994140625	598.1578979492188	-160.6878814697266	-2684.98291015625	225.1400909423828	-387.9573974609375	-2571.275146484375	600.8963012695312	-164.2477111816406	-2498.327392578125	499.3041076660156	-186.5144653320312	-2578.04541015625	506.3991088867188	-185.7280731201172	-2349.21923828125	514.9513549804688	-457.5690612792969	-2548.99755859375	467.2920837402344	-181.7435913085938	-2447.71435546875	439.06494140625	-451.6149291992188	-2545.069580078125	415.7529907226562	-442.322509765625	-2571.39892578125	344.16748046875	-189.0774230957031	-2719.677490234375	270.1853942871094	-449.4272155761719	-2637.677001953125	388.1939697265625	-175.2231750488281	-2772.23828125	439.9142456054688	-338.00390625	-2628.827392578125	261.5179748535156	-204.1827087402344	-2693.927490234375	306.9466247558594	-190.3391571044922	-2724.301025390625	408.6597900390625	-423.2723083496094	-2770.530517578125	141.9680786132812	-229.4602966308594	-2608.095947265625	71.86261749267578	-258.3001098632812	-2836.932861328125	138.7687530517578	-289.4661865234375	-2830.0302734375	105.4861831665039	-315.9769897460938	-2843.139892578125	115.4497375488281	-263.1847229003906	-2780.210205078125	448.95654296875	-391.8871459960938
42	0.205	-2445.787109375	1454.463256835938	-457.7257690429688	-2410.0859375	1411.5009765625	-145.1301574707031	-2507.487548828125	984.3654174804688	-470.8281860351562	-2504.328857421875	970.3577270507812	-166.9379425048828	-2448.47509765625	935.9994506835938	-452.8257751464844	-2721.99609375	447.0038452148438	-365.7439575195312	-2444.4423828125	924.70458984375	-190.3769683837891	-2568.307373046875	854.6674194335938	-473.7178649902344	-2595.295654296875	871.0069580078125	-172.3350372314453	-2593.683349609375	1021.976623535156	-318.2752380371094	-2337.355712890625	678.5232543945312	-472.4255676269531	-2536.2412109375	490.9503173828125	-448.8330993652344	-2412.28955078125	639.7997436523438	-482.9082336425781	-2292.8173828125	587.904052734375	-451.9826965332031	-2667.7001953125	77.5723648071289	-194.1576538085938	-2440.852294921875	518.3305053710938	-462.7289123535156	-2370.68408203125	550.72900390625	-456.0024719238281	-2482.684326171875	601.4252319335938	-160.2982025146484	-2642.384765625	218.6165771484375	-387.0105590820312	-2559.501220703125	606.7786865234375	-165.4061584472656	-2488.63427734375	502.6374816894531	-185.3690948486328	-2568.89306640625	512.230712890625	-185.8186798095703	-2321.873291015625	524.5872802734375	-456.6614685058594	-2542.686767578125	471.8248901367188	-181.9042358398438	-2417.85546875	443.0946350097656	-451.3051147460938	-2513.060302734375	414.717041015625	-441.3726196289062	-2566.82373046875	348.9976196289062	-188.4464721679688	-2678.315185546875	260.7743530273438	-447.8568115234375	-2633.042236328125	393.8634643554688	-175.8548583984375	-2741.62451171875	426.3819580078125	-336.9813232421875	-2625.495361328125	266.4951171875	-203.7723083496094	-2689.588623046875	312.8372802734375	-190.9394226074219	-2692.2744140625	399.1204528808594	-422.6940307617188	-2766.565673828125	146.7797546386719	-228.8357238769531	-2609.375732421875	71.79533386230469	-258.2783203125	-2832.659423828125	146.3723754882812	-287.2750244140625	-2826.01953125	112.7941055297852	-314.6385498046875	-2838.402587890625	122.5195465087891	-262.2918395996094	-2750.1142578125	435.3931274414062	-390.8721618652344
43	0.21	-2428.26806640625	1459.77294921875	-458.2803955078125	-2388.26953125	1417.233276367188	-146.6625213623047	-2486.715087890625	989.9445190429688	-470.5423278808594	-2480.5791015625	974.2299194335938	-166.7871856689453	-2427.43310546875	941.6651611328124	-452.0875549316406	-2693.70849609375	437.3471984863281	-364.9848937988281	-2421.004638671875	928.644287109375	-189.8181915283203	-2545.64306640625	859.73095703125	-474.0833129882812	-2574.47607421875	875.57763671875	-172.8883666992188	-2571.9072265625	1026.134399414062	-317.1129760742188	-2313.34326171875	688.2789916992188	-471.3298950195312	-2508.52685546875	489.7998352050781	-447.8256530761719	-2386.672119140625	647.2681274414062	-481.83203125	-2266.43017578125	598.3043212890625	-450.3821411132812	-2666.72021484375	78.04585266113281	-194.1499938964844	-2413.915283203125	521.11083984375	-461.34375	-2343.172607421875	559.18310546875	-455.4404602050781	-2469.64794921875	605.6571655273438	-161.8171081542969	-2599.2919921875	212.5926971435547	-387.072509765625	-2546.988037109375	613.470458984375	-166.1941833496094	-2480.2783203125	506.3743896484375	-185.3664245605469	-2559.505615234375	518.7740478515625	-185.9541320800781	-2294.464599609375	534.136962890625	-455.0670471191406	-2534.872802734375	477.1447448730469	-182.2514495849609	-2386.466796875	446.1821594238281	-449.3900146484375	-2482.260986328125	414.7832946777344	-441.3014526367188	-2560.66552734375	354.9093322753906	-187.8170928955078	-2636.7958984375	252.9212646484375	-447.2785339355469	-2627.68115234375	400.6604919433594	-176.3132629394531	-2710.79931640625	414.1952819824219	-336.696533203125	-2620.9375	272.5723876953125	-202.5757751464844	-2684.806884765625	319.65673828125	-190.6383056640625	-2659.310302734375	389.2481384277344	-421.5793762207031	-2763.003662109375	152.6946716308594	-228.3345489501953	-2609.1865234375	71.51142120361328	-257.8434448242188	-2827.707763671875	154.3265075683594	-286.6881103515625	-2822.595947265625	120.5428619384766	-314.0276794433594	-2834.654052734375	130.5404968261719	-261.2677307128906	-2720.1328125	421.9540710449219	-389.4150695800781
44	0.215	-2410.53076171875	1464.993530273438	-458.4546813964844	-2365.879638671875	1422.58203125	-148.0145263671875	-2465.103271484375	995.88671875	-469.9509887695312	-2456.955322265625	978.194091796875	-166.5790100097656	-2405.567626953125	947.1803588867188	-451.7614135742188	-2663.009033203125	424.2022094726562	-363.9761962890625	-2398.71435546875	932.3215942382812	-190.7612762451172	-2523.503173828125	866.0225219726562	-475.4278869628906	-2552.822021484375	880.9695434570312	-173.3285217285156	-2549.517333984375	1030.43212890625	-315.3638916015625	-2289.64892578125	697.228759765625	-471.0303955078125	-2479.6953125	485.8125915527344	-447.0418090820312	-2361.91552734375	655.1731567382812	-481.5028686523438	-2240.796630859375	608.657470703125	-449.1756286621094	-2665.13427734375	78.58112335205078	-193.4426422119141	-2387.75634765625	523.3790283203125	-459.6020812988281	-2316.04345703125	567.504150390625	-454.5164184570312	-2456.679443359375	608.9299926757812	-162.8783721923828	-2553.54736328125	206.8766937255859	-384.9655151367188	-2533.88623046875	620.0125732421875	-166.9532470703125	-2471.449462890625	510.5965576171875	-185.9720306396484	-2550.010009765625	526.3865356445312	-185.7660522460938	-2269.119140625	544.1239624023438	-454.8584899902344	-2526.78466796875	483.9517517089844	-181.9392547607422	-2356.636474609375	449.5276794433594	-448.213623046875	-2448.90087890625	412.4170837402344	-439.9974060058594	-2554.756591796875	361.6064453125	-187.0291137695312	-2595.034423828125	244.4755706787109	-446.7238159179688	-2620.73779296875	407.8350830078125	-176.3022155761719	-2678.10791015625	400.3436889648438	-335.9308166503906	-2615.424560546875	279.3628845214844	-201.1525421142578	-2678.697265625	327.3853759765625	-190.298583984375	-2625.9482421875	378.8038330078125	-420.3463439941406	-2757.5751953125	159.1091766357422	-227.7290649414062	-2609.0654296875	71.63335418701172	-257.5863037109375	-2822.1904296875	162.4795837402344	-285.0750732421875	-2817.750732421875	128.821044921875	-313.1429138183594	-2832.67578125	139.6755523681641	-258.8034057617188	-2689.58642578125	407.8806457519531	-389.2960510253906
